# xmcd
# Track frame offsets:
# 179
# 18978
# 48301
# 65641
# 80872
# 118190
#
# Disc length: 1751 seconds
# Revision: 2
# Processed by: cddbd v1.5.2PL0 Copyright (c) Steve Scherf et al.
# Submitted via: VisiTrax 2.11.3.279 - For more info visit www.synapsa.com
#
DISCID=5006d506
DTITLE=Johnny Cash - The Johnny Cash Show
DYEAR=1973
DGENRE=Country
TTITLE0=Sunday Morning Coming Down
TTITLE1=Come Along And Ride This Train (Medley): Six Days On The Road/There Ai
TTITLE1=n't No Easy Run/The Sailor On A Concrete Sea
TTITLE2=These Hands
TTITLE3=I'm Gonna Try To Be That Way
TTITLE4=Come Along And Ride This Train (Medley): Mississippi Delta Land/Detroi
TTITLE4=t City/Uncloudy Day/No Setting Sun/Mississippi Delta Land
TTITLE5=Here Was A Man (Dialogue)
EXTD=Columbia
EXTT0=
EXTT1=
EXTT2=
EXTT3=
EXTT4=
EXTT5=
PLAYORDER=
